# xmcd CD database file
#
# Track frame offsets:
#	150
#	7448
#	25942
#	44359
#	63427
#	83986
#	102894
#	131296
#	148520
#	165515
#
# Disc length: 2464 seconds
#
# Revision: 2
# Processed by: cddbd v1.5.1PL0 Copyright (c) Steve Scherf et al.
# Submitted via: CDex 1.51
#
DISCID=81099e0a
DTITLE=preludio - preludio
DYEAR=2004
DGENRE=Rock
TTITLE0=FFIII Crystal Tower-Dark Crystal
TTITLE1=FFIX Battle1
TTITLE2=FFIV Theme of Love
TTITLE3=FFI 海底神殿-カオスの神殿
TTITLE4=FFV Clash on the Big Bridge
TTITLE5=MQ Battle1-Battle3
TTITLE6=FFV 銀嶺を行く-FFII 反乱軍のテーマ
TTITLE7=FFVI The Decisive Battle
TTITLE8=FFIV The Myth of Zems
TTITLE9=FF preludio
EXTD=YEAR: 2004
EXTT0=
EXTT1=
EXTT2=
EXTT3=
EXTT4=
EXTT5=
EXTT6=
EXTT7=
EXTT8=
EXTT9=
PLAYORDER=
